<svg width="64" height="64" viewBox="0 0 64 64" fill="none" xmlns="http://www.w3.org/2000/svg">
  <rect width="64" height="64" fill="black"/>
  <path d="M20 20C20 18.8954 20.8954 18 22 18H26C27.1046 18 28 18.8954 28 20V24C28 25.1046 27.1046 26 26 26H22C20.8954 26 20 25.1046 20 24V20Z" fill="#3B82F6"/>
  <path d="M36 20C36 18.8954 36.8954 18 38 18H42C43.1046 18 44 18.8954 44 20V24C44 25.1046 43.1046 26 42 26H38C36.8954 26 36 25.1046 36 24V20Z" fill="#3B82F6"/>
  <path d="M24 28C24 26.8954 24.8954 26 26 26H38C39.1046 26 40 26.8954 40 28V32C40 33.1046 39.1046 34 38 34H26C24.8954 34 24 33.1046 24 32V28Z" fill="#3B82F6"/>
  <circle cx="32" cy="30" r="2" fill="white"/>
  <path d="M28 36C28 34.8954 28.8954 34 30 34H34C35.1046 34 36 34.8954 36 36V40C36 41.1046 35.1046 42 34 42H30C28.8954 42 28 41.1046 28 40V36Z" fill="#3B82F6"/>
  <path d="M32 16L30 18" stroke="#10B981" stroke-width="2" stroke-linecap="round"/>
  <path d="M32 16L34 18" stroke="#10B981" stroke-width="2" stroke-linecap="round"/>
</svg>
